<?xml version="1.0" encoding="UTF-8" standalone="no"?>
<!DOCTYPE svg PUBLIC "-//W3C//DTD SVG 1.1//EN" "http://www.w3.org/Graphics/SVG/1.1/DTD/svg11.dtd">
<svg width="100%" height="100%" viewBox="0 0 121 112" version="1.1" xmlns="http://www.w3.org/2000/svg" xmlns:xlink="http://www.w3.org/1999/xlink" xml:space="preserve" xmlns:serif="http://www.serif.com/" style="fill-rule:evenodd;clip-rule:evenodd;stroke-linejoin:round;stroke-miterlimit:2;">
    <path d="M22.4,36.5L18.7,36.5L15.3,33.5L15.3,16L28.5,16L31.9,19L31.9,22.4L22.4,22.4L22.4,23.1L28.5,23.1L31.9,26.1L31.9,29.5L22.4,29.5L22.4,36.6L22.4,36.5ZM28,18.9L28,16.7L16,16.7L16,33.2L18.5,35.4L18.5,18.9L28,18.9ZM19.2,35.8L21.7,35.8L21.7,28.7L31.2,28.7L31.2,26.6L21.7,26.6L21.7,22.2L19.2,20L19.2,35.8ZM22.2,21.7L30.6,21.7L28.2,19.6L19.8,19.6L22.2,21.7ZM22.4,23.8L22.4,25.9L30.5,25.9L28.2,23.8L22.4,23.8ZM31.2,19.4L28.7,17.2L28.7,19.1L31.2,21.3L31.2,19.4Z" style="fill:white;fill-rule:nonzero;"/>
    <path d="M42.6,36.5C37.4,36.5 33.1,32.2 33.1,26C33.1,19.8 37.4,16 42.3,16L45.2,16C50.2,16 54.7,20 54.7,26.5C54.7,33 50.4,36.5 45.5,36.5L42.5,36.5L42.6,36.5ZM45.3,19.7C44.5,19.7 43.7,19.9 43.1,20.3C46.1,20.6 48.5,23.1 48.5,26.9C48.5,30.7 45.7,33.6 42.7,33.6C39.7,33.6 36.4,30.3 36.4,25.9C36.4,21.5 38.9,18.1 42,16.8C37.8,17 33.9,20.5 33.9,26.1C33.9,31.7 37.6,35.9 42.7,35.9C47.8,35.9 51,32.5 51,26.8C51,21.1 48.5,19.8 45.4,19.8L45.3,19.7ZM42.6,32.8C43.4,32.8 44.1,32.6 44.8,32.2C41.8,31.9 39.4,29.4 39.4,25.6C39.4,21.8 42.2,18.9 45.2,18.9C48.2,18.9 51.5,22.2 51.5,26.6C51.5,31 49.2,34.4 45.9,35.8C50.2,35.5 54,32.1 54,26.5C54,20.9 49.8,16.7 45.3,16.7C40.8,16.7 36.9,20.1 36.9,25.8C36.9,31.5 39.4,32.8 42.5,32.8L42.6,32.8ZM42,21C40.9,22 40.1,23.6 40.1,25.7C40.1,29.6 42.9,31.9 45.7,31.6C46.8,30.6 47.6,29 47.6,26.8C47.6,22.9 44.8,20.7 41.9,20.9L42,21Z" style="fill:white;fill-rule:nonzero;"/>
    <path d="M72,33.5L72,32.3L69.6,36.6L65.2,36.6L63.3,33.3L63.3,36.6L59.6,36.6L56.2,33.6L56.2,16L60.5,16L63.1,18.3L67.3,25.8L72.9,15.9L76.4,15.9L79,18.2L79,36.4L75.3,36.4L71.9,33.4L72,33.5ZM65.6,30.7L59,18.9L57,17.1L57,33.1L59.5,35.3L59.5,24.8L65.6,35.6L75.2,18.7L73.3,17L65.6,30.6L65.6,30.7ZM60.2,16.7L57.5,16.7L59.1,18.2L61.8,18.2L60.2,16.7ZM65.6,29.1L67,26.6L62.6,18.9L59.8,18.9L65.6,29.1ZM62.6,35.8L62.6,31.9L60.1,27.5L60.1,35.7L62.6,35.7L62.6,35.8ZM78.4,35.8L78.4,18.9L75.9,18.9L66.3,35.8L69.1,35.8L75.9,23.8L75.9,35.8L78.4,35.8ZM72.7,31L72.7,33.2L75.2,35.4L75.2,26.6L72.7,31ZM76.3,16.7L74,16.7L75.7,18.2L77.9,18.2L76.3,16.7Z" style="fill:white;fill-rule:nonzero;"/>
    <path d="M90.1,36.5C84.9,36.5 80.6,32.2 80.6,26C80.6,19.8 84.9,16 89.8,16L92.7,16C97.7,16 102.2,20 102.2,26.5C102.2,33 97.9,36.5 93,36.5L90,36.5L90.1,36.5ZM92.8,19.7C92,19.7 91.2,19.9 90.6,20.3C93.6,20.6 96,23.1 96,26.9C96,30.7 93.2,33.6 90.2,33.6C87.2,33.6 83.9,30.3 83.9,25.9C83.9,21.5 86.4,18.1 89.5,16.8C85.3,17 81.4,20.5 81.4,26.1C81.4,31.7 85.1,35.9 90.2,35.9C95.3,35.9 98.5,32.5 98.5,26.8C98.5,21.1 95.9,19.8 92.9,19.8L92.8,19.7ZM90.1,32.8C90.9,32.8 91.6,32.6 92.3,32.2C89.3,31.9 86.9,29.4 86.9,25.6C86.9,21.8 89.7,18.9 92.7,18.9C95.7,18.9 99,22.2 99,26.6C99,31 96.7,34.4 93.4,35.8C97.7,35.5 101.5,32.1 101.5,26.5C101.5,20.9 97.3,16.7 92.8,16.7C88.3,16.7 84.4,20.1 84.4,25.8C84.4,31.5 87,32.8 90,32.8L90.1,32.8ZM89.5,21C88.4,22 87.6,23.6 87.6,25.7C87.6,29.6 90.4,31.9 93.2,31.6C94.3,30.6 95.1,29 95.1,26.8C95.1,22.9 92.3,20.7 89.4,20.9L89.5,21Z" style="fill:white;fill-rule:nonzero;"/>
    <path d="M31.1,65.3L31.1,64.1L28.7,68.4L24.3,68.4L22.4,65.1L22.4,68.4L18.7,68.4L15.3,65.4L15.3,47.9L19.6,47.9L22.2,50.2L26.4,57.7L32,47.8L35.5,47.8L38.1,50.1L38.1,68.3L34.4,68.3L31,65.2L31.1,65.3ZM24.6,62.5L18,50.7L16,48.9L16,64.9L18.5,67.1L18.5,56.6L24.6,67.4L34.2,50.5L32.3,48.8L24.6,62.4L24.6,62.5ZM19.3,48.5L16.6,48.5L18.2,50L20.9,50L19.3,48.5ZM24.6,60.9L26,58.4L21.6,50.7L18.8,50.7L24.6,60.9ZM21.7,67.7L21.7,63.8L19.2,59.5L19.2,67.7L21.7,67.7ZM37.5,67.7L37.5,50.8L35,50.8L25.4,67.7L28.2,67.7L35,55.7L35,67.7L37.5,67.7ZM31.8,62.8L31.8,65L34.3,67.2L34.3,58.4L31.8,62.8ZM35.4,48.5L33.1,48.5L34.8,50L37,50L35.4,48.5Z" style="fill:white;fill-rule:nonzero;"/>
    <path d="M49.5,68.4C44.3,68.4 40,64.1 40,57.9C40,51.7 44.3,47.9 49.2,47.9L52.1,47.9C57.1,47.9 61.6,51.9 61.6,58.4C61.6,64.9 57.3,68.4 52.4,68.4L49.4,68.4L49.5,68.4ZM52.2,51.5C51.4,51.5 50.6,51.7 50,52.1C53,52.4 55.4,54.9 55.4,58.7C55.4,62.5 52.6,65.4 49.6,65.4C46.6,65.4 43.3,62.1 43.3,57.7C43.3,53.3 45.8,49.9 48.9,48.5C44.7,48.7 40.8,52.2 40.8,57.8C40.8,63.4 44.5,67.6 49.6,67.6C54.7,67.6 57.9,64.2 57.9,58.5C57.9,52.8 55.4,51.5 52.3,51.5L52.2,51.5ZM49.5,64.7C50.3,64.7 51,64.5 51.7,64.1C48.7,63.8 46.3,61.3 46.3,57.5C46.3,53.7 49.1,50.8 52.1,50.8C55.1,50.8 58.4,54.1 58.4,58.5C58.4,62.9 56.1,66.3 52.8,67.7C57.1,67.4 60.9,64 60.9,58.4C60.9,52.8 56.7,48.6 52.2,48.6C47.7,48.6 43.8,52 43.8,57.7C43.8,63.4 46.3,64.7 49.4,64.7L49.5,64.7ZM49,52.8C47.9,53.8 47.1,55.4 47.1,57.5C47.1,61.4 49.9,63.7 52.7,63.4C53.8,62.4 54.6,60.7 54.6,58.6C54.6,54.8 51.8,52.4 48.9,52.7L49,52.8Z" style="fill:white;fill-rule:nonzero;"/>
    <path d="M65,59.2L69,59.2C69,61.5 69.6,63.2 71.4,63.7C71.8,63.2 72,62.5 72,61.5L72,54.3L64.6,54.3L64.6,50.9L68,47.9L79.1,47.9L79.1,61.8C79.1,65.8 76.3,68.5 72.3,68.5L69.4,68.5C65.4,68.5 62.4,65.9 62.4,61.7L65.1,59.3L65,59.2ZM69.3,65.3C67.4,65.3 65.2,64.2 65.1,60.1L63.1,61.9C63.2,65.4 65.8,67.6 69.4,67.6C73,67.6 75.2,65.3 75.2,61.6L75.2,51.8L72.7,54L72.7,61.4C72.7,64 71.4,65.3 69.3,65.3ZM65.3,53L67.8,50.8L67.8,48.9L65.3,51.1L65.3,53ZM68.3,59.9L65.7,59.9C65.8,63.8 67.7,64.7 69.2,64.7C70.7,64.7 70.3,64.6 70.7,64.3C68.9,63.6 68.3,61.8 68.2,59.9L68.3,59.9ZM72.2,53.5L74.6,51.4L68.3,51.4L65.9,53.5L72.2,53.5ZM75.8,61.7C75.8,64.5 74.6,66.7 72.4,67.7C75.9,67.7 78.3,65.2 78.3,61.7L78.3,48.6L68.5,48.6L68.5,50.7L75.9,50.7L75.9,61.7L75.8,61.7Z" style="fill:white;fill-rule:nonzero;"/>
    <path d="M90.1,68.4C84.9,68.4 80.6,64.1 80.6,57.9C80.6,51.7 84.9,47.9 89.8,47.9L92.7,47.9C97.7,47.9 102.2,51.9 102.2,58.4C102.2,64.9 97.9,68.4 93,68.4L90,68.4L90.1,68.4ZM92.8,51.5C92,51.5 91.2,51.7 90.6,52.1C93.6,52.4 96,54.9 96,58.7C96,62.5 93.2,65.4 90.2,65.4C87.2,65.4 83.9,62.1 83.9,57.7C83.9,53.3 86.4,49.9 89.5,48.5C85.3,48.7 81.4,52.2 81.4,57.8C81.4,63.4 85.1,67.6 90.2,67.6C95.3,67.6 98.5,64.2 98.5,58.5C98.5,52.8 95.9,51.5 92.9,51.5L92.8,51.5ZM90.1,64.7C90.9,64.7 91.6,64.5 92.3,64.1C89.3,63.8 86.9,61.3 86.9,57.5C86.9,53.7 89.7,50.8 92.7,50.8C95.7,50.8 99,54.1 99,58.5C99,62.9 96.7,66.3 93.4,67.7C97.7,67.4 101.5,64 101.5,58.4C101.5,52.8 97.3,48.6 92.8,48.6C88.3,48.6 84.4,52 84.4,57.7C84.4,63.4 87,64.7 90,64.7L90.1,64.7ZM89.5,52.8C88.4,53.8 87.6,55.4 87.6,57.5C87.6,61.4 90.4,63.7 93.2,63.4C94.3,62.4 95.1,60.7 95.1,58.6C95.1,54.8 92.3,52.4 89.4,52.7L89.5,52.8Z" style="fill:white;fill-rule:nonzero;"/>
    <path d="M23.7,79.7C30.8,79.7 34.8,83.8 34.8,90C34.8,96.2 30.4,100.3 24.3,100.3L18.7,100.3L15.3,97.3L15.3,79.8L23.7,79.8L23.7,79.7ZM24.3,99.5C30.1,99.5 34.1,95.8 34.1,89.9C34.1,84 30.4,80.3 23.7,80.3L16,80.3L16,96.6L23.5,96.6C28.1,96.6 30.9,93.9 30.9,89.9C30.9,85.9 28.2,83.2 23.5,83.2L19.8,83.2L22.2,85.3L23.6,85.3C26.7,85.3 28.5,87.1 28.5,89.9C28.5,92.7 26.7,94.5 23.6,94.5L18.5,94.5L18.5,82.5L23.6,82.5C28.6,82.5 31.7,85.6 31.7,89.9C31.7,94.2 28.6,97.3 23.6,97.3L16.6,97.3L19,99.4L24.2,99.4L24.3,99.5ZM19.2,93.8L21.7,93.8L21.7,85.9L19.2,83.7L19.2,93.9L19.2,93.8ZM22.4,86L22.4,93.8L23.6,93.8C26.3,93.8 27.8,92.3 27.8,89.9C27.8,87.5 26.3,86 23.6,86L22.4,86Z" style="fill:white;fill-rule:nonzero;"/>
    <path d="M46.8,100.2C41.6,100.2 37.3,95.9 37.3,89.6C37.3,83.3 41.6,79.6 46.5,79.6L49.4,79.6C54.4,79.6 58.9,83.6 58.9,90.2C58.9,96.8 54.6,100.2 49.7,100.2L46.7,100.2L46.8,100.2ZM49.5,83.4C48.7,83.4 47.9,83.6 47.3,84C50.3,84.3 52.7,86.8 52.7,90.6C52.7,94.4 49.9,97.3 46.9,97.3C43.9,97.3 40.6,94 40.6,89.6C40.6,85.2 43.1,81.8 46.2,80.4C42,80.6 38.1,84.1 38.1,89.7C38.1,95.3 41.8,99.5 46.9,99.5C52,99.5 55.2,96.1 55.2,90.4C55.2,84.7 52.7,83.4 49.6,83.4L49.5,83.4ZM46.8,96.5C47.6,96.5 48.3,96.3 49,95.9C46,95.6 43.6,93.1 43.6,89.3C43.6,85.5 46.4,82.6 49.4,82.6C52.4,82.6 55.7,85.9 55.7,90.3C55.7,94.7 53.4,98.1 50.1,99.5C54.4,99.2 58.2,95.8 58.2,90.2C58.2,84.6 54,80.4 49.5,80.4C45,80.4 41.1,83.8 41.1,89.5C41.1,95.2 43.6,96.5 46.7,96.5L46.8,96.5ZM46.2,84.6C45.1,85.6 44.3,87.2 44.3,89.3C44.3,93.2 47.1,95.5 49.9,95.2C51,94.2 51.8,92.5 51.8,90.4C51.8,86.6 49,84.2 46.1,84.5L46.2,84.6Z" style="fill:white;fill-rule:nonzero;"/>
    <path d="M63.6,91L67.6,91C67.6,93.3 68.2,95 70,95.5C70.4,95 70.6,94.3 70.6,93.3L70.6,86.1L63.2,86.1L63.2,82.7L66.6,79.7L77.7,79.7L77.7,93.6C77.7,97.6 74.9,100.3 70.9,100.3L68,100.3C64,100.3 61,97.7 61,93.5L63.7,91.1L63.6,91ZM67.9,97.2C66,97.2 63.8,96.1 63.7,92L61.7,93.8C61.8,97.3 64.4,99.5 68,99.5C71.6,99.5 73.8,97.2 73.8,93.5L73.8,83.7L71.3,85.9L71.3,93.3C71.3,95.9 70,97.2 67.9,97.2ZM63.9,84.9L66.4,82.7L66.4,80.8L63.9,83L63.9,84.9ZM66.9,91.7L64.3,91.7C64.4,95.6 66.3,96.5 67.8,96.5C69.3,96.5 68.9,96.4 69.3,96.1C67.5,95.4 66.9,93.6 66.8,91.7L66.9,91.7ZM70.8,85.3L73.2,83.2L66.9,83.2L64.5,85.3L70.8,85.3ZM74.5,93.5C74.5,96.3 73.3,98.5 71.1,99.5C74.6,99.5 77,97 77,93.5L77,80.3L67.2,80.3L67.2,82.4L74.6,82.4L74.6,93.4L74.5,93.5Z" style="fill:white;fill-rule:nonzero;"/>
    <path d="M90.1,100.2C84.9,100.2 80.6,95.9 80.6,89.6C80.6,83.3 84.9,79.6 89.8,79.6L92.7,79.6C97.7,79.6 102.2,83.6 102.2,90.2C102.2,96.8 97.9,100.2 93,100.2L90,100.2L90.1,100.2ZM92.8,83.4C92,83.4 91.2,83.6 90.6,84C93.6,84.3 96,86.8 96,90.6C96,94.4 93.2,97.3 90.2,97.3C87.2,97.3 83.9,94 83.9,89.6C83.9,85.2 86.4,81.8 89.5,80.4C85.3,80.6 81.4,84.1 81.4,89.7C81.4,95.3 85.1,99.5 90.2,99.5C95.3,99.5 98.5,96.1 98.5,90.4C98.5,84.7 95.9,83.4 92.9,83.4L92.8,83.4ZM90.1,96.5C90.9,96.5 91.6,96.3 92.3,95.9C89.3,95.6 86.9,93.1 86.9,89.3C86.9,85.5 89.7,82.6 92.7,82.6C95.7,82.6 99,85.9 99,90.3C99,94.7 96.7,98.1 93.4,99.5C97.7,99.2 101.5,95.8 101.5,90.2C101.5,84.6 97.3,80.4 92.8,80.4C88.3,80.4 84.4,83.8 84.4,89.5C84.4,95.2 87,96.5 90,96.5L90.1,96.5ZM89.6,84.6C88.5,85.6 87.7,87.2 87.7,89.3C87.7,93.2 90.5,95.5 93.3,95.2C94.4,94.2 95.2,92.5 95.2,90.4C95.2,86.6 92.4,84.2 89.5,84.5L89.6,84.6Z" style="fill:white;fill-rule:nonzero;"/>
</svg>
